# Blender v2.93.6 OBJ File: ''
# www.blender.org
mtllib Coconut.mtl
o Object.004_coconutBrown100.002
v 0.008599 -0.001379 -0.238849
v 0.008599 0.019064 -0.233386
v 0.020237 0.015647 -0.233386
v 0.009185 -0.001551 -0.238849
v 0.008599 0.056406 -0.223463
v 0.049562 0.061278 -0.211951
v 0.008599 0.116921 -0.177362
v 0.008599 0.168213 -0.092667
v 0.079869 0.108437 -0.162232
v 0.008599 0.178319 -0.005606
v 0.103928 0.145873 -0.073015
v 0.008599 0.149493 0.116766
v 0.099809 0.139464 0.071456
v 0.008599 0.111442 0.171093
v 0.077979 0.105495 0.154197
v 0.008599 0.057725 0.214502
v 0.051760 0.064698 0.201246
v 0.008599 0.024034 0.225870
v 0.022924 0.019827 0.225870
v 0.008599 -0.002462 0.237887
v 0.008599 -0.002462 0.237887
v 0.028180 0.006480 -0.233386
v 0.009584 -0.002012 -0.238849
v 0.077520 0.029013 -0.211951
v 0.128512 0.052300 -0.162232
v 0.168991 0.070787 -0.073015
v 0.162061 0.067622 0.071456
v 0.125331 0.050848 0.154197
v 0.081218 0.030702 0.201246
v 0.032700 0.008545 0.225870
v 0.008599 -0.002462 0.237887
v 0.029906 -0.005525 -0.233386
v 0.009671 -0.002616 -0.238849
v 0.083596 -0.013245 -0.211951
v 0.139083 -0.021223 -0.162232
v 0.183130 -0.027556 -0.073015
v 0.175589 -0.026472 0.071456
v 0.135621 -0.020725 0.154197
v 0.087620 -0.013823 0.201246
v 0.034825 -0.006233 0.225870
v 0.008599 -0.002462 0.237887
v 0.024867 -0.016558 -0.233386
v 0.009418 -0.003171 -0.238849
v 0.065861 -0.052080 -0.211951
v 0.108226 -0.088789 -0.162232
v 0.141857 -0.117931 -0.073015
v 0.136100 -0.112942 0.071456
v 0.105583 -0.086499 0.154197
v 0.068933 -0.054742 0.201246
v 0.028623 -0.019813 0.225870
v 0.008599 -0.002462 0.237887
v 0.014664 -0.023116 -0.233386
v 0.008904 -0.003501 -0.238849
v 0.029945 -0.075161 -0.211951
v 0.045739 -0.128948 -0.162232
v 0.058276 -0.171646 -0.073015
v 0.056129 -0.164336 0.071456
v 0.044753 -0.125592 0.154197
v 0.031091 -0.079061 0.201246
v 0.016064 -0.027884 0.225870
v 0.008599 -0.002462 0.237887
v 0.002535 -0.023116 -0.233386
v 0.008294 -0.003501 -0.238849
v -0.012747 -0.075161 -0.211951
v -0.028541 -0.128948 -0.162232
v -0.041078 -0.171645 -0.073015
v -0.038931 -0.164336 0.071456
v -0.027555 -0.125592 0.154197
v -0.013893 -0.079061 0.201246
v 0.001134 -0.027884 0.225870
v 0.008599 -0.002462 0.237887
v -0.007669 -0.016558 -0.233386
v 0.007780 -0.003171 -0.238849
v -0.048663 -0.052079 -0.211951
v -0.091028 -0.088789 -0.162232
v -0.124659 -0.117931 -0.073015
v -0.118902 -0.112942 0.071456
v -0.088385 -0.086499 0.154197
v -0.051735 -0.054741 0.201246
v -0.011425 -0.019813 0.225870
v 0.008599 -0.002462 0.237887
v -0.012708 -0.005525 -0.233386
v 0.007527 -0.002616 -0.238849
v -0.066398 -0.013245 -0.211951
v -0.121885 -0.021223 -0.162232
v -0.165932 -0.027556 -0.073015
v -0.158391 -0.026471 0.071456
v -0.118423 -0.020725 0.154197
v -0.070422 -0.013823 0.201246
v -0.017627 -0.006233 0.225870
v 0.008599 -0.002462 0.237887
v -0.010982 0.006480 -0.233386
v 0.007614 -0.002012 -0.238849
v -0.060322 0.029013 -0.211951
v -0.111314 0.052300 -0.162232
v -0.151793 0.070787 -0.073015
v -0.144863 0.067622 0.071456
v -0.108132 0.050848 0.154197
v -0.064020 0.030702 0.201246
v -0.015502 0.008545 0.225870
v 0.008599 -0.002462 0.237887
v -0.003039 0.015647 -0.233386
v 0.008013 -0.001551 -0.238849
v -0.040863 0.074502 -0.199535
v -0.079597 0.134775 -0.111415
v -0.089375 0.149989 -0.030089
v -0.078544 0.133135 0.095323
v -0.052982 0.093360 0.171093
v -0.034562 0.064698 0.201246
v -0.005725 0.019828 0.225870
v 0.008599 -0.002462 0.237887
vt 1.250000 1.197305
vt 1.750000 1.181323
vt 1.870534 1.181323
vt 1.231020 1.197305
vt 0.750000 1.181323
vt 0.750000 1.152295
vt 0.847943 1.118619
vt 0.870534 1.181323
vt 0.750000 1.017433
vt 0.750000 0.769675
vt 0.844839 0.973173
vt 0.750000 0.514992
vt 0.843819 0.712186
vt 0.750000 0.157015
vt 0.843954 0.289560
vt 0.750000 -0.001910
vt 0.844950 0.047516
vt 0.750000 -0.128896
vt 0.847562 -0.090116
vt 0.750000 -0.162152
vt 0.863831 -0.162152
vt -0.250000 -0.162152
vt 0.250000 -0.197305
vt 0.250000 -0.197305
vt -0.136169 -0.162152
vt 0.974666 1.181323
vt 1.221005 1.197305
vt 0.943242 1.118619
vt 0.938301 0.973173
vt 0.936644 0.712186
vt 0.936865 0.289560
vt 0.938481 0.047516
vt 0.942645 -0.090116
vt 0.966131 -0.162152
vt 0.250001 -0.197305
vt -0.033869 -0.162152
vt 0.221005 1.197305
vt -0.025334 1.181323
vt 0.062733 1.181323
vt 0.221637 1.197305
vt -0.056758 1.118619
vt 0.034632 1.118619
vt -0.061699 0.973173
vt 0.029610 0.973173
vt -0.063356 0.712186
vt 0.027882 0.712186
vt -0.063135 0.289560
vt 0.028114 0.289560
vt -0.061519 0.047516
vt 0.029796 0.047516
vt -0.057355 -0.090116
vt 0.034034 -0.090116
vt 0.055685 -0.162152
vt 0.250001 -0.197305
vt 0.140909 1.181323
vt 0.230083 1.197305
vt 0.122394 1.118619
vt 0.118777 0.973173
vt 0.117508 0.712186
vt 0.117679 0.289560
vt 0.118914 0.047516
vt 0.121969 -0.090116
vt 0.136503 -0.162152
vt 0.250002 -0.197305
vt 0.214132 1.181323
vt 0.242900 1.197305
vt 0.207742 1.118619
vt 0.206438 0.973174
vt 0.205975 0.712186
vt 0.206038 0.289560
vt 0.206487 0.047516
vt 0.207590 -0.090116
vt 0.212649 -0.162152
vt 0.250002 -0.197305
vt 0.285868 1.181323
vt 0.257097 1.197305
vt 0.292258 1.118619
vt 0.293562 0.973174
vt 0.294025 0.712186
vt 0.293963 0.289560
vt 0.293513 0.047516
vt 0.292410 -0.090116
vt 0.287351 -0.162152
vt 0.250002 -0.197305
vt 0.359090 1.181323
vt 0.269914 1.197305
vt 0.377606 1.118619
vt 0.381223 0.973174
vt 0.382492 0.712186
vt 0.382321 0.289560
vt 0.381087 0.047517
vt 0.378031 -0.090116
vt 0.363498 -0.162152
vt 0.250001 -0.197305
vt 0.437266 1.181323
vt 0.278361 1.197305
vt 0.465368 1.118619
vt 0.470390 0.973173
vt 0.472118 0.712186
vt 0.471886 0.289560
vt 0.470204 0.047516
vt 0.465966 -0.090116
vt 0.444315 -0.162152
vt 0.250001 -0.197305
vt 0.525334 1.181323
vt 0.278995 1.197305
vt 0.556758 1.118619
vt 0.561699 0.973173
vt 0.563356 0.712186
vt 0.563135 0.289560
vt 0.561519 0.047516
vt 0.557356 -0.090116
vt 0.533870 -0.162152
vt 0.250000 -0.197305
vt 0.629466 1.181323
vt 0.268980 1.197305
vt 0.653332 1.082297
vt 0.655939 0.824519
vt 0.656262 0.586614
vt 0.655899 0.219743
vt 0.654516 -0.001910
vt 0.652438 -0.090116
vt 0.636169 -0.162152
vt 0.250000 -0.197305
vt 0.250000 1.197305
vt -0.363831 -0.162152
vt -0.750000 -0.197305
vt -0.750000 -0.197305
vn 0.0000 0.2582 -0.9661
vn 0.0247 0.2772 -0.9605
vn 0.1745 0.2715 -0.9465
vn 0.1396 0.2171 -0.9661
vn -0.0232 0.4196 -0.9074
vn 0.3123 0.4537 -0.8346
vn -0.0205 0.7501 -0.6610
vn 0.0019 0.9492 -0.3146
vn 0.4422 0.6743 -0.5914
vn 0.0084 0.9985 0.0545
vn 0.5428 0.8158 -0.1996
vn -0.0029 0.9118 0.4105
vn 0.5312 0.8109 0.2454
vn -0.0026 0.7446 0.6675
vn 0.4528 0.6805 0.5761
vn -0.0108 0.4649 0.8853
vn 0.3279 0.4923 0.8063
vn -0.0221 0.3761 0.9263
vn 0.2346 0.3268 0.9155
vn 0.0135 -0.0459 -0.7784
vn -0.0064 -0.0219 -0.3712
vn 0.2936 0.1341 -0.9465
vn 0.2349 0.1072 -0.9661
vn 0.4963 0.2267 -0.8380
vn 0.7329 0.3347 -0.5923
vn 0.8922 0.4074 -0.1950
vn 0.8825 0.4030 0.2424
vn 0.7457 0.3406 0.5726
vn 0.5328 0.2433 0.8105
vn 0.3790 0.1731 0.9091
vn 0.0309 0.0268 0.6655
vn 0.3194 -0.0459 -0.9465
vn 0.2556 -0.0366 -0.9661
vn 0.5400 -0.0776 -0.8380
vn 0.7975 -0.1147 -0.5923
vn 0.9708 -0.1396 -0.1950
vn 0.9603 -0.1381 0.2424
vn 0.8115 -0.1167 0.5726
vn 0.5798 -0.0834 0.8105
vn 0.4124 -0.0593 0.9091
vn -0.0493 -0.0071 -0.8116
vn 0.2439 -0.2113 -0.9465
vn 0.1951 -0.1690 -0.9661
vn 0.4123 -0.3573 -0.8380
vn 0.6089 -0.5276 -0.5923
vn 0.7412 -0.6423 -0.1950
vn 0.7332 -0.6353 0.2424
vn 0.6196 -0.5369 0.5726
vn 0.4427 -0.3836 0.8105
vn 0.3148 -0.2728 0.9091
vn -0.0540 0.0247 -0.9672
vn 0.0909 -0.3097 -0.9465
vn 0.0727 -0.2477 -0.9661
vn 0.1537 -0.5235 -0.8381
vn 0.2270 -0.7731 -0.5923
vn 0.2763 -0.9411 -0.1950
vn 0.2733 -0.9309 0.2424
vn 0.2310 -0.7866 0.5726
vn 0.1650 -0.5620 0.8105
vn 0.1174 -0.3997 0.9091
vn -0.0288 0.0449 -0.8681
vn -0.0909 -0.3097 -0.9465
vn -0.0727 -0.2477 -0.9661
vn -0.1537 -0.5235 -0.8381
vn -0.2270 -0.7731 -0.5923
vn -0.2763 -0.9411 -0.1950
vn -0.2733 -0.9309 0.2424
vn -0.2310 -0.7866 0.5726
vn -0.1650 -0.5620 0.8105
vn -0.1174 -0.3997 0.9091
vn 0.0000 -0.0006 0.0095
vn -0.2439 -0.2113 -0.9465
vn -0.1951 -0.1691 -0.9661
vn -0.4123 -0.3573 -0.8380
vn -0.6089 -0.5276 -0.5923
vn -0.7412 -0.6423 -0.1950
vn -0.7332 -0.6353 0.2424
vn -0.6196 -0.5369 0.5726
vn -0.4427 -0.3836 0.8105
vn -0.3148 -0.2728 0.9091
vn 0.0066 0.0103 -0.2001
vn -0.3194 -0.0459 -0.9465
vn -0.2556 -0.0366 -0.9661
vn -0.5400 -0.0776 -0.8381
vn -0.7975 -0.1147 -0.5923
vn -0.9708 -0.1396 -0.1950
vn -0.9603 -0.1381 0.2424
vn -0.8115 -0.1167 0.5726
vn -0.5798 -0.0834 0.8105
vn -0.4123 -0.0593 0.9091
vn 0.0487 0.0222 -0.8711
vn -0.2936 0.1341 -0.9465
vn -0.2349 0.1072 -0.9661
vn -0.4772 0.2361 -0.8465
vn -0.7235 0.3398 -0.6009
vn -0.8985 0.3920 -0.1974
vn -0.8861 0.3939 0.2442
vn -0.7451 0.3364 0.5759
vn -0.5328 0.2433 0.8105
vn -0.3790 0.1731 0.9091
vn 0.0553 -0.0080 -0.9103
vn -0.1934 0.2584 -0.9465
vn -0.1396 0.2171 -0.9661
vn -0.3569 0.5361 -0.7650
vn -0.4932 0.7660 -0.4123
vn -0.5480 0.8361 -0.0263
vn -0.5056 0.7934 0.3390
vn -0.4168 0.6371 0.6484
vn -0.3198 0.4801 0.8168
vn -0.2252 0.3505 0.9091
vn 0.0005 -0.0004 -0.0109
usemtl CoconutBrown.002
s 1
f 1/1/1 2/2/2 3/3/3
f 3/3/3 4/4/4 1/1/1
f 2/5/2 5/6/5 6/7/6
f 6/7/6 3/8/3 2/5/2
f 5/6/5 7/9/7 6/7/6
f 7/9/7 8/10/8 9/11/9
f 9/11/9 6/7/6 7/9/7
f 8/10/8 10/12/10 11/13/11
f 11/13/11 9/11/9 8/10/8
f 10/12/10 12/14/12 13/15/13
f 13/15/13 11/13/11 10/12/10
f 12/14/12 14/16/14 15/17/15
f 15/17/15 13/15/13 12/14/12
f 14/16/14 16/18/16 17/19/17
f 17/19/17 15/17/15 14/16/14
f 16/18/16 18/20/18 19/21/19
f 19/21/19 17/19/17 16/18/16
f 18/22/18 20/23/20 21/24/21
f 21/24/21 19/25/19 18/22/18
f 4/4/4 3/8/3 22/26/22
f 22/26/22 23/27/23 4/4/4
f 3/8/3 6/7/6 24/28/24
f 24/28/24 22/26/22 3/8/3
f 6/7/6 9/11/9 25/29/25
f 25/29/25 24/28/24 6/7/6
f 9/11/9 11/13/11 26/30/26
f 26/30/26 25/29/25 9/11/9
f 11/13/11 13/15/13 27/31/27
f 27/31/27 26/30/26 11/13/11
f 13/15/13 15/17/15 28/32/28
f 28/32/28 27/31/27 13/15/13
f 15/17/15 17/19/17 29/33/29
f 29/33/29 28/32/28 15/17/15
f 17/19/17 19/21/19 30/34/30
f 30/34/30 29/33/29 17/19/17
f 19/25/19 21/24/21 31/35/31
f 31/35/31 30/36/30 19/25/19
f 23/37/23 22/38/22 32/39/32
f 32/39/32 33/40/33 23/37/23
f 22/38/22 24/41/24 34/42/34
f 34/42/34 32/39/32 22/38/22
f 24/41/24 25/43/25 35/44/35
f 35/44/35 34/42/34 24/41/24
f 25/43/25 26/45/26 36/46/36
f 36/46/36 35/44/35 25/43/25
f 26/45/26 27/47/27 37/48/37
f 37/48/37 36/46/36 26/45/26
f 27/47/27 28/49/28 38/50/38
f 38/50/38 37/48/37 27/47/27
f 28/49/28 29/51/29 39/52/39
f 39/52/39 38/50/38 28/49/28
f 29/51/29 30/36/30 40/53/40
f 40/53/40 39/52/39 29/51/29
f 30/36/30 31/35/31 41/54/41
f 41/54/41 40/53/40 30/36/30
f 33/40/33 32/39/32 42/55/42
f 42/55/42 43/56/43 33/40/33
f 32/39/32 34/42/34 44/57/44
f 44/57/44 42/55/42 32/39/32
f 34/42/34 35/44/35 45/58/45
f 45/58/45 44/57/44 34/42/34
f 35/44/35 36/46/36 46/59/46
f 46/59/46 45/58/45 35/44/35
f 36/46/36 37/48/37 47/60/47
f 47/60/47 46/59/46 36/46/36
f 37/48/37 38/50/38 48/61/48
f 48/61/48 47/60/47 37/48/37
f 38/50/38 39/52/39 49/62/49
f 49/62/49 48/61/48 38/50/38
f 39/52/39 40/53/40 50/63/50
f 50/63/50 49/62/49 39/52/39
f 40/53/40 41/54/41 51/64/51
f 51/64/51 50/63/50 40/53/40
f 43/56/43 42/55/42 52/65/52
f 52/65/52 53/66/53 43/56/43
f 42/55/42 44/57/44 54/67/54
f 54/67/54 52/65/52 42/55/42
f 44/57/44 45/58/45 55/68/55
f 55/68/55 54/67/54 44/57/44
f 45/58/45 46/59/46 56/69/56
f 56/69/56 55/68/55 45/58/45
f 46/59/46 47/60/47 57/70/57
f 57/70/57 56/69/56 46/59/46
f 47/60/47 48/61/48 58/71/58
f 58/71/58 57/70/57 47/60/47
f 48/61/48 49/62/49 59/72/59
f 59/72/59 58/71/58 48/61/48
f 49/62/49 50/63/50 60/73/60
f 60/73/60 59/72/59 49/62/49
f 50/63/50 51/64/51 61/74/61
f 61/74/61 60/73/60 50/63/50
f 53/66/53 52/65/52 62/75/62
f 62/75/62 63/76/63 53/66/53
f 52/65/52 54/67/54 64/77/64
f 64/77/64 62/75/62 52/65/52
f 54/67/54 55/68/55 65/78/65
f 65/78/65 64/77/64 54/67/54
f 55/68/55 56/69/56 66/79/66
f 66/79/66 65/78/65 55/68/55
f 56/69/56 57/70/57 67/80/67
f 67/80/67 66/79/66 56/69/56
f 57/70/57 58/71/58 68/81/68
f 68/81/68 67/80/67 57/70/57
f 58/71/58 59/72/59 69/82/69
f 69/82/69 68/81/68 58/71/58
f 59/72/59 60/73/60 70/83/70
f 70/83/70 69/82/69 59/72/59
f 60/73/60 61/74/61 71/84/71
f 71/84/71 70/83/70 60/73/60
f 63/76/63 62/75/62 72/85/72
f 72/85/72 73/86/73 63/76/63
f 62/75/62 64/77/64 74/87/74
f 74/87/74 72/85/72 62/75/62
f 64/77/64 65/78/65 75/88/75
f 75/88/75 74/87/74 64/77/64
f 65/78/65 66/79/66 76/89/76
f 76/89/76 75/88/75 65/78/65
f 66/79/66 67/80/67 77/90/77
f 77/90/77 76/89/76 66/79/66
f 67/80/67 68/81/68 78/91/78
f 78/91/78 77/90/77 67/80/67
f 68/81/68 69/82/69 79/92/79
f 79/92/79 78/91/78 68/81/68
f 69/82/69 70/83/70 80/93/80
f 80/93/80 79/92/79 69/82/69
f 70/83/70 71/84/71 81/94/81
f 81/94/81 80/93/80 70/83/70
f 73/86/73 72/85/72 82/95/82
f 82/95/82 83/96/83 73/86/73
f 72/85/72 74/87/74 84/97/84
f 84/97/84 82/95/82 72/85/72
f 74/87/74 75/88/75 85/98/85
f 85/98/85 84/97/84 74/87/74
f 75/88/75 76/89/76 86/99/86
f 86/99/86 85/98/85 75/88/75
f 76/89/76 77/90/77 87/100/87
f 87/100/87 86/99/86 76/89/76
f 77/90/77 78/91/78 88/101/88
f 88/101/88 87/100/87 77/90/77
f 78/91/78 79/92/79 89/102/89
f 89/102/89 88/101/88 78/91/78
f 79/92/79 80/93/80 90/103/90
f 90/103/90 89/102/89 79/92/79
f 80/93/80 81/94/81 91/104/91
f 91/104/91 90/103/90 80/93/80
f 83/96/83 82/95/82 92/105/92
f 92/105/92 93/106/93 83/96/83
f 82/95/82 84/97/84 94/107/94
f 94/107/94 92/105/92 82/95/82
f 84/97/84 85/98/85 95/108/95
f 95/108/95 94/107/94 84/97/84
f 85/98/85 86/99/86 96/109/96
f 96/109/96 95/108/95 85/98/85
f 86/99/86 87/100/87 97/110/97
f 97/110/97 96/109/96 86/99/86
f 87/100/87 88/101/88 98/111/98
f 98/111/98 97/110/97 87/100/87
f 88/101/88 89/102/89 99/112/99
f 99/112/99 98/111/98 88/101/88
f 89/102/89 90/103/90 100/113/100
f 100/113/100 99/112/99 89/102/89
f 90/103/90 91/104/91 101/114/101
f 101/114/101 100/113/100 90/103/90
f 93/106/93 92/105/92 102/115/102
f 102/115/102 103/116/103 93/106/93
f 92/105/92 94/107/94 102/115/102
f 94/107/94 95/108/95 104/117/104
f 104/117/104 102/115/102 94/107/94
f 95/108/95 96/109/96 105/118/105
f 105/118/105 104/117/104 95/108/95
f 96/109/96 97/110/97 106/119/106
f 106/119/106 105/118/105 96/109/96
f 97/110/97 98/111/98 107/120/107
f 107/120/107 106/119/106 97/110/97
f 108/121/108 107/120/107 98/111/98
f 98/111/98 99/112/99 109/122/109
f 109/122/109 108/121/108 98/111/98
f 99/112/99 100/113/100 110/123/110
f 110/123/110 109/122/109 99/112/99
f 100/113/100 101/114/101 111/124/111
f 111/124/111 110/123/110 100/113/100
f 103/116/103 102/115/102 2/5/2
f 2/5/2 1/125/1 103/116/103
f 102/115/102 104/117/104 5/6/5
f 5/6/5 2/5/2 102/115/102
f 104/117/104 105/118/105 7/9/7
f 7/9/7 5/6/5 104/117/104
f 105/118/105 106/119/106 8/10/8
f 8/10/8 7/9/7 105/118/105
f 106/119/106 107/120/107 10/12/10
f 10/12/10 8/10/8 106/119/106
f 107/120/107 108/121/108 12/14/12
f 12/14/12 10/12/10 107/120/107
f 108/121/108 109/122/109 14/16/14
f 14/16/14 12/14/12 108/121/108
f 16/18/16 14/16/14 109/122/109
f 109/122/109 110/123/110 18/20/18
f 18/20/18 16/18/16 109/122/109
f 110/126/110 111/127/111 20/128/20
f 20/128/20 18/22/18 110/126/110
