# Blender v2.93.1 OBJ File: ''
# www.blender.org
mtllib glass.mtl
o Cylinder
v 0.005968 0.000000 -0.951705
v 0.005968 2.921840 -0.951705
v 0.158775 0.000000 -0.934519
v 0.158775 2.921840 -0.934519
v 0.305709 0.000000 -0.883623
v 0.305709 2.921840 -0.883623
v 0.441125 0.000000 -0.800972
v 0.441125 2.921840 -0.800972
v 0.559818 0.000000 -0.689742
v 0.559818 2.921840 -0.689742
v 0.657227 0.000000 -0.554209
v 0.657227 2.921840 -0.554209
v 0.729608 0.000000 -0.399579
v 0.729608 2.921840 -0.399579
v 0.774181 0.000000 -0.231797
v 0.774181 2.921840 -0.231797
v 0.789231 0.000000 -0.057309
v 0.789231 2.921840 -0.057309
v 0.774181 0.000000 0.117179
v 0.774181 2.921840 0.117179
v 0.729608 0.000000 0.284962
v 0.729608 2.921840 0.284962
v 0.657227 0.000000 0.439591
v 0.657227 2.921840 0.439591
v 0.559818 0.000000 0.575125
v 0.559818 2.921840 0.575125
v 0.441125 0.000000 0.686355
v 0.441125 2.921840 0.686355
v 0.305709 0.000000 0.769006
v 0.305709 2.921840 0.769006
v 0.158775 0.000000 0.819902
v 0.158775 2.921840 0.819902
v 0.005967 0.000000 0.837088
v 0.005967 2.921840 0.837088
v -0.146839 0.000000 0.819902
v -0.146839 2.921840 0.819902
v -0.293774 0.000000 0.769006
v -0.293774 2.921840 0.769006
v -0.429190 0.000000 0.686355
v -0.429190 2.921840 0.686355
v -0.547883 0.000000 0.575125
v -0.547883 2.921840 0.575125
v -0.645292 0.000000 0.439592
v -0.645292 2.921840 0.439592
v -0.717673 0.000000 0.284962
v -0.717673 2.921840 0.284962
v -0.762245 0.000000 0.117179
v -0.762245 2.921840 0.117179
v -0.777296 0.000000 -0.057309
v -0.777296 2.921840 -0.057309
v -0.762245 0.000000 -0.231797
v -0.762245 2.921840 -0.231797
v -0.717673 0.000000 -0.399579
v -0.717673 2.921840 -0.399579
v -0.645292 0.000000 -0.554208
v -0.645292 2.921840 -0.554208
v -0.547883 0.000000 -0.689742
v -0.547883 2.921840 -0.689742
v -0.429190 0.000000 -0.800972
v -0.429190 2.921840 -0.800972
v -0.293774 0.000000 -0.883623
v -0.293774 2.921840 -0.883623
v -0.146839 0.000000 -0.934519
v -0.146839 2.921840 -0.934519
v 0.005968 1.460920 -0.951705
v 0.158775 1.460920 -0.934519
v 0.305709 1.460920 -0.883623
v 0.441125 1.460920 -0.800972
v 0.559818 1.460920 -0.689742
v 0.657227 1.460920 -0.554209
v 0.729608 1.460920 -0.399579
v 0.774181 1.460920 -0.231797
v 0.789231 1.460920 -0.057309
v 0.774181 1.460920 0.117179
v 0.729608 1.460920 0.284962
v 0.657227 1.460920 0.439591
v 0.559818 1.460920 0.575125
v 0.441125 1.460920 0.686355
v 0.305709 1.460920 0.769006
v 0.158775 1.460920 0.819902
v 0.005967 1.460920 0.837088
v -0.146839 1.460920 0.819902
v -0.293774 1.460920 0.769006
v -0.429190 1.460920 0.686355
v -0.547883 1.460920 0.575125
v -0.645292 1.460920 0.439592
v -0.717673 1.460920 0.284962
v -0.762245 1.460920 0.117179
v -0.777296 1.460920 -0.057309
v -0.762245 1.460920 -0.231797
v -0.717673 1.460920 -0.399579
v -0.645292 1.460920 -0.554208
v -0.547883 1.460920 -0.689742
v -0.429190 1.460920 -0.800972
v -0.293774 1.460920 -0.883623
v -0.146839 1.460920 -0.934519
v 0.158775 1.443957 -0.934519
v 0.158775 0.016963 -0.934519
v 0.305709 1.443957 -0.883623
v 0.305709 0.016963 -0.883623
v 0.441125 1.443957 -0.800972
v 0.441125 0.016963 -0.800972
v 0.559818 1.443957 -0.689742
v 0.559818 0.016963 -0.689742
v 0.657227 1.443957 -0.554209
v 0.657227 0.016963 -0.554209
v 0.729608 1.443957 -0.399579
v 0.729608 0.016963 -0.399579
v 0.774181 1.443957 -0.231797
v 0.774181 0.016963 -0.231797
v 0.789231 1.443957 -0.057309
v 0.789231 0.016963 -0.057309
v 0.774181 1.443957 0.117179
v 0.774181 0.016963 0.117179
v 0.729608 1.443957 0.284962
v 0.729608 0.016963 0.284962
v 0.657227 1.443957 0.439591
v 0.657227 0.016963 0.439591
v 0.559818 1.443957 0.575125
v 0.559818 0.016963 0.575125
v 0.441125 1.443957 0.686355
v 0.441125 0.016963 0.686355
v 0.305709 1.443957 0.769006
v 0.305709 0.016963 0.769006
v 0.158775 1.443957 0.819902
v 0.158775 0.016963 0.819902
v 0.005967 1.443957 0.837088
v 0.005967 0.016963 0.837088
v -0.146839 1.443957 0.819902
v -0.146839 0.016963 0.819902
v -0.293774 1.443957 0.769006
v -0.293774 0.016963 0.769006
v -0.429190 1.443957 0.686355
v -0.429190 0.016963 0.686355
v -0.547883 1.443957 0.575125
v -0.547883 0.016963 0.575125
v -0.645292 1.443957 0.439592
v -0.645292 0.016963 0.439592
v -0.717673 1.443957 0.284962
v -0.717673 0.016963 0.284962
v -0.762245 1.443957 0.117179
v -0.762245 0.016963 0.117179
v -0.777296 1.443957 -0.057309
v -0.777296 0.016963 -0.057309
v -0.762245 1.443957 -0.231797
v -0.762245 0.016963 -0.231797
v -0.717673 1.443957 -0.399579
v -0.717673 0.016963 -0.399579
v -0.645292 1.443957 -0.554208
v -0.645292 0.016963 -0.554208
v -0.547883 1.443957 -0.689742
v -0.547883 0.016963 -0.689742
v -0.429190 1.443957 -0.800972
v -0.429190 0.016963 -0.800972
v -0.293774 1.443957 -0.883623
v -0.293774 0.016963 -0.883623
v -0.146839 1.443957 -0.934519
v -0.146839 0.016963 -0.934519
v 0.005968 0.016963 -0.951705
v 0.005968 1.443957 -0.951705
v 0.131652 2.921840 -0.814761
v 0.005968 2.921840 -0.828897
v -0.119716 2.921840 -0.814761
v -0.241412 2.921840 -0.772608
v -0.354898 2.921840 -0.703341
v -0.455738 2.921840 -0.608842
v -0.539572 2.921840 -0.492196
v -0.602524 2.921840 -0.357712
v -0.641571 2.921840 -0.210728
v -0.654804 2.921840 -0.057309
v -0.641571 2.921840 0.096111
v -0.602524 2.921840 0.243095
v -0.539572 2.921840 0.377579
v -0.455738 2.921840 0.494225
v -0.354898 2.921840 0.588724
v -0.241412 2.921840 0.657990
v -0.119716 2.921840 0.700144
v 0.005967 2.921840 0.714279
v 0.131652 2.921840 0.700144
v 0.253347 2.921840 0.657990
v 0.366833 2.921840 0.588724
v 0.467673 2.921840 0.494225
v 0.551507 2.921840 0.377579
v 0.614459 2.921840 0.243095
v 0.653506 2.921840 0.096111
v 0.666739 2.921840 -0.057309
v 0.653506 2.921840 -0.210728
v 0.614459 2.921840 -0.357712
v 0.551507 2.921840 -0.492197
v 0.467673 2.921840 -0.608842
v 0.366833 2.921840 -0.703341
v 0.253347 2.921840 -0.772608
v 0.135594 2.921840 -0.832166
v 0.005968 2.921840 -0.846745
v 0.260957 2.921840 -0.788742
v -0.123658 2.921840 -0.832166
v -0.249022 2.921840 -0.788742
v -0.365696 2.921840 -0.717531
v -0.469130 2.921840 -0.620600
v -0.554937 2.921840 -0.501209
v -0.619259 2.921840 -0.363797
v -0.659109 2.921840 -0.213790
v -0.672606 2.921840 -0.057309
v -0.659109 2.921840 0.099173
v -0.619259 2.921840 0.249180
v -0.554937 2.921840 0.386592
v -0.469130 2.921840 0.505983
v -0.365696 2.921840 0.602913
v -0.249022 2.921840 0.674125
v -0.123658 2.921840 0.717549
v 0.005967 2.921840 0.732128
v 0.135594 2.921840 0.717549
v 0.260957 2.921840 0.674125
v 0.377631 2.921840 0.602913
v 0.481065 2.921840 0.505982
v 0.566872 2.921840 0.386592
v 0.631194 2.921840 0.249180
v 0.671044 2.921840 0.099173
v 0.684541 2.921840 -0.057309
v 0.671044 2.921840 -0.213790
v 0.631194 2.921840 -0.363797
v 0.566872 2.921840 -0.501209
v 0.481065 2.921840 -0.620600
v 0.377631 2.921840 -0.717531
vt 1.000000 0.750000
vt 1.000000 1.000000
vt 0.968750 1.000000
vt 0.968750 0.750000
vt 0.937500 1.000000
vt 0.937500 0.750000
vt 0.906250 1.000000
vt 0.906250 0.750000
vt 0.875000 1.000000
vt 0.875000 0.750000
vt 0.843750 1.000000
vt 0.843750 0.750000
vt 0.812500 1.000000
vt 0.812500 0.750000
vt 0.781250 1.000000
vt 0.781250 0.750000
vt 0.750000 1.000000
vt 0.750000 0.750000
vt 0.718750 1.000000
vt 0.718750 0.750000
vt 0.687500 1.000000
vt 0.687500 0.750000
vt 0.656250 1.000000
vt 0.656250 0.750000
vt 0.625000 1.000000
vt 0.625000 0.750000
vt 0.593750 1.000000
vt 0.593750 0.750000
vt 0.562500 1.000000
vt 0.562500 0.750000
vt 0.531250 1.000000
vt 0.531250 0.750000
vt 0.500000 1.000000
vt 0.500000 0.750000
vt 0.468750 1.000000
vt 0.468750 0.750000
vt 0.437500 1.000000
vt 0.437500 0.750000
vt 0.406250 1.000000
vt 0.406250 0.750000
vt 0.375000 1.000000
vt 0.375000 0.750000
vt 0.343750 1.000000
vt 0.343750 0.750000
vt 0.312500 1.000000
vt 0.312500 0.750000
vt 0.281250 1.000000
vt 0.281250 0.750000
vt 0.250000 1.000000
vt 0.250000 0.750000
vt 0.218750 1.000000
vt 0.218750 0.750000
vt 0.187500 1.000000
vt 0.187500 0.750000
vt 0.156250 1.000000
vt 0.156250 0.750000
vt 0.125000 1.000000
vt 0.125000 0.750000
vt 0.093750 1.000000
vt 0.093750 0.750000
vt 0.062500 1.000000
vt 0.062500 0.750000
vt 0.031250 1.000000
vt 0.031250 0.750000
vt 0.000000 1.000000
vt 0.000000 0.750000
vt 0.750000 0.490000
vt 0.796822 0.485388
vt 0.841844 0.471731
vt 0.883337 0.449553
vt 0.919706 0.419706
vt 0.949553 0.383337
vt 0.971731 0.341844
vt 0.985388 0.296822
vt 0.990000 0.250000
vt 0.985388 0.203178
vt 0.971731 0.158156
vt 0.949553 0.116663
vt 0.919706 0.080294
vt 0.883337 0.050447
vt 0.841844 0.028269
vt 0.796822 0.014612
vt 0.750000 0.010000
vt 0.703178 0.014612
vt 0.658156 0.028269
vt 0.616663 0.050447
vt 0.580294 0.080294
vt 0.550447 0.116663
vt 0.528269 0.158156
vt 0.514612 0.203178
vt 0.510000 0.250000
vt 0.514612 0.296822
vt 0.528269 0.341844
vt 0.550447 0.383337
vt 0.580294 0.419706
vt 0.616663 0.449553
vt 0.658156 0.471731
vt 0.703178 0.485388
vt 0.031250 0.500000
vt 0.031250 0.502903
vt 0.000000 0.502903
vt 0.000000 0.500000
vt 0.062500 0.500000
vt 0.062500 0.502903
vt 0.093750 0.500000
vt 0.093750 0.502903
vt 0.125000 0.500000
vt 0.125000 0.502903
vt 0.156250 0.500000
vt 0.156250 0.502903
vt 0.187500 0.500000
vt 0.187500 0.502903
vt 0.218750 0.500000
vt 0.218750 0.502903
vt 0.250000 0.500000
vt 0.250000 0.502903
vt 0.281250 0.500000
vt 0.281250 0.502903
vt 0.312500 0.500000
vt 0.312500 0.502903
vt 0.343750 0.500000
vt 0.343750 0.502903
vt 0.375000 0.500000
vt 0.375000 0.502903
vt 0.406250 0.500000
vt 0.406250 0.502903
vt 0.437500 0.500000
vt 0.437500 0.502903
vt 0.468750 0.500000
vt 0.468750 0.502903
vt 0.500000 0.500000
vt 0.500000 0.502903
vt 0.531250 0.500000
vt 0.531250 0.502903
vt 0.562500 0.500000
vt 0.562500 0.502903
vt 0.593750 0.500000
vt 0.593750 0.502903
vt 0.625000 0.500000
vt 0.625000 0.502903
vt 0.656250 0.500000
vt 0.656250 0.502903
vt 0.687500 0.500000
vt 0.687500 0.502903
vt 0.718750 0.500000
vt 0.718750 0.502903
vt 0.750000 0.500000
vt 0.750000 0.502903
vt 0.781250 0.500000
vt 0.781250 0.502903
vt 0.812500 0.500000
vt 0.812500 0.502903
vt 0.843750 0.500000
vt 0.843750 0.502903
vt 0.875000 0.500000
vt 0.875000 0.502903
vt 0.906250 0.500000
vt 0.906250 0.502903
vt 1.000000 0.747097
vt 0.968750 0.747097
vt 0.937500 0.500000
vt 0.937500 0.502903
vt 0.937500 0.747097
vt 1.000000 0.500000
vt 1.000000 0.502903
vt 0.968750 0.502903
vt 0.968750 0.500000
vt 0.906250 0.747097
vt 0.875000 0.747097
vt 0.843750 0.747097
vt 0.812500 0.747097
vt 0.781250 0.747097
vt 0.750000 0.747097
vt 0.718750 0.747097
vt 0.687500 0.747097
vt 0.656250 0.747097
vt 0.625000 0.747097
vt 0.593750 0.747097
vt 0.562500 0.747097
vt 0.531250 0.747097
vt 0.500000 0.747097
vt 0.468750 0.747097
vt 0.437500 0.747097
vt 0.406250 0.747097
vt 0.375000 0.747097
vt 0.343750 0.747097
vt 0.312500 0.747097
vt 0.281250 0.747097
vt 0.281250 0.747097
vt 0.250000 0.747097
vt 0.218750 0.747097
vt 0.187500 0.747097
vt 0.156250 0.747097
vt 0.125000 0.747097
vt 0.093750 0.747097
vt 0.062500 0.747097
vt 0.031250 0.747097
vt 0.000000 0.747097
vt 0.296822 0.485388
vt 0.250000 0.490000
vt 0.250000 0.461835
vt 0.289719 0.457923
vt 0.203178 0.485388
vt 0.210281 0.457923
vt 0.158156 0.471731
vt 0.171868 0.446271
vt 0.116663 0.449553
vt 0.136119 0.427162
vt 0.080294 0.419706
vt 0.104425 0.401152
vt 0.050447 0.383337
vt 0.078133 0.369115
vt 0.028269 0.341844
vt 0.058424 0.332242
vt 0.014612 0.296822
vt 0.046214 0.291990
vt 0.010000 0.250000
vt 0.042078 0.250000
vt 0.014612 0.203178
vt 0.046214 0.208010
vt 0.028269 0.158156
vt 0.058424 0.167758
vt 0.050447 0.116663
vt 0.078133 0.130885
vt 0.080294 0.080294
vt 0.104425 0.098848
vt 0.116663 0.050447
vt 0.136119 0.072838
vt 0.158156 0.028269
vt 0.171868 0.053729
vt 0.203178 0.014612
vt 0.210281 0.042077
vt 0.250000 0.010000
vt 0.250000 0.038165
vt 0.296822 0.014612
vt 0.289719 0.042077
vt 0.341844 0.028269
vt 0.328132 0.053729
vt 0.383337 0.050447
vt 0.363881 0.072838
vt 0.419706 0.080294
vt 0.395575 0.098848
vt 0.449553 0.116663
vt 0.421867 0.130885
vt 0.471731 0.158156
vt 0.441576 0.167758
vt 0.485388 0.203178
vt 0.453786 0.208010
vt 0.490000 0.250000
vt 0.457922 0.250000
vt 0.485388 0.296822
vt 0.453786 0.291990
vt 0.471731 0.341844
vt 0.441576 0.332242
vt 0.449553 0.383337
vt 0.421867 0.369115
vt 0.419706 0.419706
vt 0.395575 0.401152
vt 0.383337 0.449553
vt 0.363881 0.427162
vt 0.341844 0.471731
vt 0.328131 0.446271
vt 0.250000 0.457046
vt 0.288511 0.453253
vt 0.325800 0.441941
vt 0.211489 0.453253
vt 0.174200 0.441941
vt 0.139427 0.423355
vt 0.108528 0.397997
vt 0.082841 0.366697
vt 0.063552 0.330610
vt 0.051588 0.291168
vt 0.047533 0.250000
vt 0.051588 0.208832
vt 0.063552 0.169390
vt 0.082841 0.133303
vt 0.108529 0.102003
vt 0.139427 0.076645
vt 0.174200 0.058059
vt 0.211489 0.046747
vt 0.250000 0.042954
vt 0.288511 0.046747
vt 0.325800 0.058059
vt 0.360573 0.076645
vt 0.391471 0.102003
vt 0.417159 0.133303
vt 0.436448 0.169390
vt 0.448412 0.208832
vt 0.452467 0.250000
vt 0.448412 0.291168
vt 0.436448 0.330610
vt 0.417159 0.366697
vt 0.391471 0.397997
vt 0.360573 0.423355
vn 0.1118 0.0000 -0.9937
vn 0.3273 0.0000 -0.9449
vn 0.5210 0.0000 -0.8536
vn 0.6838 0.0000 -0.7297
vn 0.8120 0.0000 -0.5836
vn 0.9057 0.0000 -0.4239
vn 0.9665 0.0000 -0.2567
vn 0.9963 0.0000 -0.0859
vn 0.9963 0.0000 0.0859
vn 0.9665 0.0000 0.2567
vn 0.9057 0.0000 0.4239
vn 0.8120 0.0000 0.5836
vn 0.6838 0.0000 0.7297
vn 0.5210 0.0000 0.8536
vn 0.3273 0.0000 0.9449
vn 0.1118 0.0000 0.9937
vn -0.1118 0.0000 0.9937
vn -0.3273 0.0000 0.9449
vn -0.5210 0.0000 0.8536
vn -0.6838 0.0000 0.7297
vn -0.8120 0.0000 0.5836
vn -0.9057 0.0000 0.4239
vn -0.9665 0.0000 0.2567
vn -0.9963 0.0000 0.0859
vn -0.9963 0.0000 -0.0859
vn -0.9665 0.0000 -0.2567
vn -0.9057 0.0000 -0.4239
vn -0.8120 0.0000 -0.5836
vn -0.6838 0.0000 -0.7297
vn -0.5210 0.0000 -0.8536
vn -0.3273 0.0000 -0.9449
vn -0.1118 0.0000 -0.9937
vn 0.0000 -1.0000 0.0000
vn 0.9665 0.0000 0.2568
vn 0.0000 1.0000 0.0000
usemtl None
s off
f 65/1/1 2/2/1 4/3/1 66/4/1
f 66/4/2 4/3/2 6/5/2 67/6/2
f 67/6/3 6/5/3 8/7/3 68/8/3
f 68/8/4 8/7/4 10/9/4 69/10/4
f 69/10/5 10/9/5 12/11/5 70/12/5
f 70/12/6 12/11/6 14/13/6 71/14/6
f 71/14/7 14/13/7 16/15/7 72/16/7
f 72/16/8 16/15/8 18/17/8 73/18/8
f 73/18/9 18/17/9 20/19/9 74/20/9
f 74/20/10 20/19/10 22/21/10 75/22/10
f 75/22/11 22/21/11 24/23/11 76/24/11
f 76/24/12 24/23/12 26/25/12 77/26/12
f 77/26/13 26/25/13 28/27/13 78/28/13
f 78/28/14 28/27/14 30/29/14 79/30/14
f 79/30/15 30/29/15 32/31/15 80/32/15
f 80/32/16 32/31/16 34/33/16 81/34/16
f 81/34/17 34/33/17 36/35/17 82/36/17
f 82/36/18 36/35/18 38/37/18 83/38/18
f 83/38/19 38/37/19 40/39/19 84/40/19
f 84/40/20 40/39/20 42/41/20 85/42/20
f 85/42/21 42/41/21 44/43/21 86/44/21
f 86/44/22 44/43/22 46/45/22 87/46/22
f 87/46/23 46/45/23 48/47/23 88/48/23
f 88/48/24 48/47/24 50/49/24 89/50/24
f 89/50/25 50/49/25 52/51/25 90/52/25
f 90/52/26 52/51/26 54/53/26 91/54/26
f 91/54/27 54/53/27 56/55/27 92/56/27
f 92/56/28 56/55/28 58/57/28 93/58/28
f 93/58/29 58/57/29 60/59/29 94/60/29
f 94/60/30 60/59/30 62/61/30 95/62/30
f 95/62/31 62/61/31 64/63/31 96/64/31
f 96/64/32 64/63/32 2/65/32 65/66/32
f 1/67/33 3/68/33 5/69/33 7/70/33 9/71/33 11/72/33 13/73/33 15/74/33 17/75/33 19/76/33 21/77/33 23/78/33 25/79/33 27/80/33 29/81/33 31/82/33 33/83/33 35/84/33 37/85/33 39/86/33 41/87/33 43/88/33 45/89/33 47/90/33 49/91/33 51/92/33 53/93/33 55/94/33 57/95/33 59/96/33 61/97/33 63/98/33
f 63/99/32 158/100/32 159/101/32 1/102/32
f 61/103/31 156/104/31 158/100/31 63/99/31
f 59/105/30 154/106/30 156/104/30 61/103/30
f 57/107/29 152/108/29 154/106/29 59/105/29
f 55/109/28 150/110/28 152/108/28 57/107/28
f 53/111/27 148/112/27 150/110/27 55/109/27
f 51/113/26 146/114/26 148/112/26 53/111/26
f 49/115/25 144/116/25 146/114/25 51/113/25
f 47/117/24 142/118/24 144/116/24 49/115/24
f 45/119/23 140/120/23 142/118/23 47/117/23
f 43/121/22 138/122/22 140/120/22 45/119/22
f 41/123/21 136/124/21 138/122/21 43/121/21
f 39/125/20 134/126/20 136/124/20 41/123/20
f 37/127/19 132/128/19 134/126/19 39/125/19
f 35/129/18 130/130/18 132/128/18 37/127/18
f 33/131/17 128/132/17 130/130/17 35/129/17
f 31/133/16 126/134/16 128/132/16 33/131/16
f 29/135/15 124/136/15 126/134/15 31/133/15
f 27/137/14 122/138/14 124/136/14 29/135/14
f 25/139/13 120/140/13 122/138/13 27/137/13
f 23/141/12 118/142/12 120/140/12 25/139/12
f 21/143/11 116/144/11 118/142/11 23/141/11
f 19/145/10 114/146/10 116/144/10 21/143/10
f 17/147/9 112/148/9 114/146/9 19/145/9
f 15/149/8 110/150/8 112/148/8 17/147/8
f 13/151/7 108/152/7 110/150/7 15/149/7
f 11/153/6 106/154/6 108/152/6 13/151/6
f 9/155/5 104/156/5 106/154/5 11/153/5
f 7/157/4 102/158/4 104/156/4 9/155/4
f 160/159/1 65/1/1 66/4/1 97/160/1
f 5/161/3 100/162/3 102/158/3 7/157/3
f 97/160/2 66/4/2 67/6/2 99/163/2
f 1/164/1 159/165/1 98/166/1 3/167/1
f 99/163/3 67/6/3 68/8/3 101/168/3
f 101/168/4 68/8/4 69/10/4 103/169/4
f 103/169/5 69/10/5 70/12/5 105/170/5
f 105/170/6 70/12/6 71/14/6 107/171/6
f 107/171/7 71/14/7 72/16/7 109/172/7
f 109/172/8 72/16/8 73/18/8 111/173/8
f 111/173/9 73/18/9 74/20/9 113/174/9
f 113/174/34 74/20/34 75/22/34 115/175/34
f 115/175/11 75/22/11 76/24/11 117/176/11
f 117/176/12 76/24/12 77/26/12 119/177/12
f 119/177/13 77/26/13 78/28/13 121/178/13
f 121/178/14 78/28/14 79/30/14 123/179/14
f 123/179/15 79/30/15 80/32/15 125/180/15
f 125/180/16 80/32/16 81/34/16 127/181/16
f 127/181/17 81/34/17 82/36/17 129/182/17
f 129/182/18 82/36/18 83/38/18 131/183/18
f 131/183/19 83/38/19 84/40/19 133/184/19
f 133/184/20 84/40/20 85/42/20 135/185/20
f 135/185/21 85/42/21 86/44/21 137/186/21
f 137/186/22 86/44/22 87/46/22 139/187/22
f 139/187/23 87/46/23 88/48/23 141/188/23
f 141/189/24 88/48/24 89/50/24 143/190/24
f 143/190/25 89/50/25 90/52/25 145/191/25
f 145/191/26 90/52/26 91/54/26 147/192/26
f 147/192/27 91/54/27 92/56/27 149/193/27
f 149/193/28 92/56/28 93/58/28 151/194/28
f 151/194/29 93/58/29 94/60/29 153/195/29
f 153/195/30 94/60/30 95/62/30 155/196/30
f 155/196/31 95/62/31 96/64/31 157/197/31
f 157/197/32 96/64/32 65/66/32 160/198/32
f 160/159/1 97/160/1 98/166/1 159/165/1
f 97/160/2 99/163/2 100/162/2 98/166/2
f 99/163/3 101/168/3 102/158/3 100/162/3
f 101/168/4 103/169/4 104/156/4 102/158/4
f 103/169/5 105/170/5 106/154/5 104/156/5
f 105/170/6 107/171/6 108/152/6 106/154/6
f 107/171/7 109/172/7 110/150/7 108/152/7
f 109/172/8 111/173/8 112/148/8 110/150/8
f 111/173/9 113/174/9 114/146/9 112/148/9
f 113/174/10 115/175/10 116/144/10 114/146/10
f 115/175/11 117/176/11 118/142/11 116/144/11
f 117/176/12 119/177/12 120/140/12 118/142/12
f 119/177/13 121/178/13 122/138/13 120/140/13
f 121/178/14 123/179/14 124/136/14 122/138/14
f 123/179/15 125/180/15 126/134/15 124/136/15
f 125/180/16 127/181/16 128/132/16 126/134/16
f 127/181/17 129/182/17 130/130/17 128/132/17
f 129/182/18 131/183/18 132/128/18 130/130/18
f 131/183/19 133/184/19 134/126/19 132/128/19
f 133/184/20 135/185/20 136/124/20 134/126/20
f 135/185/21 137/186/21 138/122/21 136/124/21
f 137/186/22 139/187/22 140/120/22 138/122/22
f 139/187/23 141/188/23 142/118/23 140/120/23
f 141/189/24 143/190/24 144/116/24 142/118/24
f 143/190/25 145/191/25 146/114/25 144/116/25
f 145/191/26 147/192/26 148/112/26 146/114/26
f 147/192/27 149/193/27 150/110/27 148/112/27
f 149/193/28 151/194/28 152/108/28 150/110/28
f 151/194/29 153/195/29 154/106/29 152/108/29
f 153/195/30 155/196/30 156/104/30 154/106/30
f 155/196/31 157/197/31 158/100/31 156/104/31
f 157/197/32 160/198/32 159/101/32 158/100/32
f 3/167/2 98/166/2 100/162/2 5/161/2
f 4/199/35 2/200/35 194/201/35 193/202/35
f 2/200/35 64/203/35 196/204/35 194/201/35
f 64/203/35 62/205/35 197/206/35 196/204/35
f 62/205/35 60/207/35 198/208/35 197/206/35
f 60/207/35 58/209/35 199/210/35 198/208/35
f 58/209/35 56/211/35 200/212/35 199/210/35
f 56/211/35 54/213/35 201/214/35 200/212/35
f 54/213/35 52/215/35 202/216/35 201/214/35
f 52/215/35 50/217/35 203/218/35 202/216/35
f 50/217/35 48/219/35 204/220/35 203/218/35
f 48/219/35 46/221/35 205/222/35 204/220/35
f 46/221/35 44/223/35 206/224/35 205/222/35
f 44/223/35 42/225/35 207/226/35 206/224/35
f 42/225/35 40/227/35 208/228/35 207/226/35
f 40/227/35 38/229/35 209/230/35 208/228/35
f 38/229/35 36/231/35 210/232/35 209/230/35
f 36/231/35 34/233/35 211/234/35 210/232/35
f 34/233/35 32/235/35 212/236/35 211/234/35
f 32/235/35 30/237/35 213/238/35 212/236/35
f 30/237/35 28/239/35 214/240/35 213/238/35
f 28/239/35 26/241/35 215/242/35 214/240/35
f 26/241/35 24/243/35 216/244/35 215/242/35
f 24/243/35 22/245/35 217/246/35 216/244/35
f 22/245/35 20/247/35 218/248/35 217/246/35
f 20/247/35 18/249/35 219/250/35 218/248/35
f 18/249/35 16/251/35 220/252/35 219/250/35
f 16/251/35 14/253/35 221/254/35 220/252/35
f 14/253/35 12/255/35 222/256/35 221/254/35
f 12/255/35 10/257/35 223/258/35 222/256/35
f 10/257/35 8/259/35 224/260/35 223/258/35
f 8/259/35 6/261/35 195/262/35 224/260/35
f 6/261/35 4/199/35 193/202/35 195/262/35
f 162/263/35 161/264/35 193/202/35 194/201/35
f 161/264/35 192/265/35 195/262/35 193/202/35
f 163/266/35 162/263/35 194/201/35 196/204/35
f 164/267/35 163/266/35 196/204/35 197/206/35
f 165/268/35 164/267/35 197/206/35 198/208/35
f 166/269/35 165/268/35 198/208/35 199/210/35
f 167/270/35 166/269/35 199/210/35 200/212/35
f 168/271/35 167/270/35 200/212/35 201/214/35
f 169/272/35 168/271/35 201/214/35 202/216/35
f 170/273/35 169/272/35 202/216/35 203/218/35
f 171/274/35 170/273/35 203/218/35 204/220/35
f 172/275/35 171/274/35 204/220/35 205/222/35
f 173/276/35 172/275/35 205/222/35 206/224/35
f 174/277/35 173/276/35 206/224/35 207/226/35
f 175/278/35 174/277/35 207/226/35 208/228/35
f 176/279/35 175/278/35 208/228/35 209/230/35
f 177/280/35 176/279/35 209/230/35 210/232/35
f 178/281/35 177/280/35 210/232/35 211/234/35
f 179/282/35 178/281/35 211/234/35 212/236/35
f 180/283/35 179/282/35 212/236/35 213/238/35
f 181/284/35 180/283/35 213/238/35 214/240/35
f 182/285/35 181/284/35 214/240/35 215/242/35
f 183/286/35 182/285/35 215/242/35 216/244/35
f 184/287/35 183/286/35 216/244/35 217/246/35
f 185/288/35 184/287/35 217/246/35 218/248/35
f 186/289/35 185/288/35 218/248/35 219/250/35
f 187/290/35 186/289/35 219/250/35 220/252/35
f 188/291/35 187/290/35 220/252/35 221/254/35
f 189/292/35 188/291/35 221/254/35 222/256/35
f 190/293/35 189/292/35 222/256/35 223/258/35
f 191/294/35 190/293/35 223/258/35 224/260/35
f 192/265/35 191/294/35 224/260/35 195/262/35
