# Blender v2.93.6 OBJ File: 'Palm Tree.blend'
# www.blender.org
mtllib Island.mtl
o island_Circle
v 0.002867 -1.012578 71.833374
v -9.123512 -1.012945 70.453247
v -17.899172 -1.009178 66.365913
v -25.986862 -1.028740 59.728439
v -33.075787 -1.024842 50.795898
v -38.893513 -1.065035 39.911572
v -43.216473 -1.023819 27.493736
v -45.878540 -1.032792 14.019600
v -46.777409 -1.057974 0.006963
v -45.878544 -1.018920 -14.005672
v -43.216480 -1.059563 -27.479809
v -38.893513 -1.031180 -39.897655
v -33.075787 -1.002818 -50.781982
v -25.986860 -0.993828 -59.714527
v -17.899160 -1.033147 -66.352005
v -9.123502 -1.031313 -70.439339
v 0.002882 -1.042472 -71.819450
v 9.129265 -1.021613 -70.439323
v 17.904924 -1.028718 -66.351982
v 25.992619 -1.007810 -59.714500
v 33.081535 -1.016912 -50.781956
v 38.899258 -1.016914 -39.897621
v 43.222218 -1.007637 -27.479765
v 45.884277 -1.005376 -14.005619
v 46.783138 -1.014724 0.007027
v 45.884258 -1.007110 14.019671
v 43.222179 -1.006544 27.493813
v 38.899212 -1.055745 39.911648
v 33.081470 -1.053278 50.795963
v 25.992542 -1.059906 59.728493
v 17.904840 -1.022688 66.365959
v 9.129175 -1.016932 70.453270
v -8.415723 -0.954108 64.989845
v -16.510790 -0.950342 61.219486
v -23.971251 -0.988096 55.096783
v -30.510395 -1.038358 46.857002
v -35.876938 -1.001896 36.816799
v -39.864624 -1.004038 25.362020
v -42.320240 -1.001135 12.932859
v -43.149406 -0.974581 0.006963
v -42.320244 -0.993211 -12.918932
v -39.864632 -0.986133 -25.348093
v -35.876938 -1.007695 -36.802883
v -30.510395 -0.968583 -46.843086
v -23.971247 -0.962233 -55.082870
v -16.510784 -1.008668 -61.205578
v -8.415713 -0.971627 -64.975929
v 0.002881 -0.961708 -66.249008
v 8.421473 -0.952533 -64.975922
v 16.516544 -0.992645 -61.205563
v 23.976999 -0.970026 -55.082848
v 30.516144 -0.964910 -46.843063
v 35.882683 -0.962275 -36.802853
v 39.870373 -0.968001 -25.348053
v 42.325981 -0.970079 -12.918881
v 43.155136 -0.969478 0.007022
v 42.325962 -0.955215 12.932925
v 39.870338 -0.972922 25.362089
v 35.882633 -1.037011 36.816868
v 30.516087 -0.971401 46.857059
v 23.976931 -0.977222 55.096840
v 16.516464 -1.016408 61.219528
v 8.421391 -0.984813 64.989861
v 0.002868 -0.969175 66.262932
v -7.385208 -0.785655 57.035324
v -14.489365 -0.775522 53.726501
v -21.036592 -0.812730 48.353271
v -26.775284 -0.840537 41.122116
v -31.484915 -0.868323 32.310928
v -34.984474 -0.817936 22.258326
v -37.139500 -0.864424 11.350605
v -37.867161 -0.788013 0.006960
v -37.139503 -0.793140 -11.336680
v -34.984478 -0.774708 -22.244394
v -31.484911 -0.759671 -32.297016
v -26.775288 -0.764780 -41.108208
v -21.036589 -0.774482 -48.339363
v -14.489359 -0.804955 -53.712593
v -7.385201 -0.858853 -57.021416
v 0.002879 -0.825741 -58.138664
v 7.390957 -0.763280 -57.021404
v 14.495114 -0.793903 -53.712578
v 21.042345 -0.749081 -48.339340
v 26.781033 -0.774106 -41.108177
v 31.490660 -0.766911 -32.296986
v 34.990215 -0.758705 -22.244364
v 37.145233 -0.772386 -11.336639
v 37.872890 -0.757269 0.007014
v 37.145222 -0.787168 11.350666
v 34.990189 -0.769171 22.258383
v 31.490616 -0.787784 32.310993
v 26.780985 -0.809770 41.122169
v 21.042284 -0.851537 48.353317
v 14.495049 -0.794979 53.726540
v 7.390882 -0.761033 57.035347
v 0.002870 -0.760961 58.152576
v -6.161408 -0.452688 47.588852
v -12.088797 -0.550609 44.828114
v -17.551506 -0.566536 40.344940
v -22.339611 -0.548859 34.311584
v -26.269112 -0.564475 26.959932
v -29.188988 -0.481931 18.572496
v -30.987043 -0.450751 9.471583
v -31.594173 -0.585528 0.006957
v -30.987045 -0.527495 -9.457660
v -29.188992 -0.482922 -18.558565
v -26.269112 -0.557240 -26.946016
v -22.339613 -0.417545 -34.297676
v -17.551504 -0.489432 -40.331032
v -12.088792 -0.514140 -44.814209
v -6.161403 -0.426951 -47.574944
v 0.002877 -0.412850 -48.507122
v 6.167153 -0.592422 -47.574936
v 12.094543 -0.548959 -44.814194
v 17.557259 -0.473968 -40.331005
v 22.345364 -0.460541 -34.297657
v 26.274857 -0.441483 -26.945990
v 29.194733 -0.431586 -18.558540
v 30.992783 -0.411858 -9.457627
v 31.599903 -0.393966 0.007005
v 30.992769 -0.418945 9.471635
v 29.194710 -0.404025 18.572544
v 26.274824 -0.545823 26.959990
v 22.345320 -0.505917 34.311634
v 17.557205 -0.532442 40.344971
v 12.094486 -0.522447 44.828144
v 6.167089 -0.447255 47.588871
v 0.002874 -0.467693 48.521038
v -4.834650 -0.106894 37.347641
v -9.486271 -0.073498 35.181110
v -13.773220 -0.253493 31.662863
v -17.530767 -0.312358 26.928089
v -20.614508 -0.191591 21.158754
v -22.905928 -0.098716 14.576578
v -24.316984 -0.221186 7.434479
v -24.793440 -0.144415 0.006955
v -24.316986 -0.353552 -7.420557
v -22.905931 -0.291384 -14.562646
v -20.614504 -0.244360 -21.144842
v -17.530766 -0.181425 -26.914179
v -13.773220 -0.104440 -31.648951
v -9.486266 -0.169541 -35.167206
v -4.834647 -0.276512 -37.333733
v 0.002875 -0.288102 -38.065281
v 4.840392 -0.069996 -37.333729
v 9.492009 -0.207202 -35.167194
v 13.778972 -0.175727 -31.648928
v 17.536514 -0.126844 -26.914158
v 20.620251 -0.155352 -21.144823
v 22.911673 -0.134871 -14.562629
v 24.322718 -0.122845 -7.420535
v 24.799171 -0.054401 0.006996
v 24.322710 -0.097137 7.434521
v 22.911654 -0.201013 14.576615
v 20.620226 -0.289863 21.158802
v 17.536484 -0.359488 26.928122
v 13.778928 -0.295669 31.662891
v 9.491965 -0.183762 35.181137
v 4.840339 -0.157172 37.347660
v 0.002878 -0.167438 38.079193
v -3.337931 -0.105848 25.710535
v -6.777360 -0.053288 25.139761
v -9.319723 -0.034822 24.225058
v -13.046116 -0.030691 21.908060
v -15.770291 -0.174932 16.719608
v -17.870472 -0.007011 11.927640
v -17.374269 -0.133476 5.314103
v -17.714710 -0.142763 0.006953
v -17.374271 -0.170803 -5.300181
v -15.498092 -0.097415 -10.048010
v -14.728756 -0.073251 -15.106532
v -12.525347 -0.114779 -19.228863
v -10.187667 -0.060723 -24.211142
v -6.777353 -0.096644 -25.125853
v -3.453658 -0.094167 -26.673893
v 0.002873 0.018913 -27.196602
v 3.459396 -0.024210 -27.473475
v 6.783092 -0.024360 -26.369640
v 9.846238 -0.062054 -22.611954
v 12.068192 -0.025085 -18.606947
v 14.734500 -0.009140 -15.106516
v 17.181856 -0.042031 -10.669903
v 17.380007 -0.011010 -5.300167
v 18.877703 -0.023840 0.006986
v 18.305807 -0.076364 5.491821
v 17.181845 -0.117367 10.950399
v 15.370973 -0.073289 16.097748
v 12.531074 -0.106166 19.242796
v 9.846204 -0.179186 22.625910
v 6.435883 -0.084210 24.251354
v 3.459355 -0.037521 26.687822
v 0.002883 -0.033256 27.210518
vt 0.004950 0.548511
vt 0.043444 0.544744
vt 0.043490 0.454679
vt 0.005008 0.450873
vt 0.061029 0.366359
vt 0.024055 0.355128
vt 0.095439 0.283198
vt 0.061418 0.264963
vt 0.145598 0.208455
vt 0.115742 0.183859
vt 0.209416 0.144880
vt 0.184969 0.114973
vt 0.284394 0.094984
vt 0.266255 0.060883
vt 0.367645 0.060774
vt 0.356481 0.023727
vt 0.455890 0.043343
vt 0.452174 0.004950
vt 0.545820 0.043511
vt 0.549673 0.005056
vt 0.633980 0.061148
vt 0.645244 0.024272
vt 0.716935 0.095802
vt 0.735197 0.061819
vt 0.791614 0.145900
vt 0.816115 0.116129
vt 0.855134 0.209454
vt 0.884942 0.185050
vt 0.904857 0.284197
vt 0.938896 0.266072
vt 0.939054 0.367224
vt 0.976018 0.356071
vt 0.956443 0.455330
vt 0.994841 0.451578
vt 0.956504 0.545118
vt 0.994841 0.548902
vt 0.938923 0.633177
vt 0.975800 0.644367
vt 0.904552 0.716173
vt 0.938572 0.734339
vt 0.854682 0.790894
vt 0.884517 0.815347
vt 0.791200 0.854490
vt 0.815686 0.884280
vt 0.716510 0.904479
vt 0.734714 0.938478
vt 0.633474 0.938937
vt 0.644700 0.975858
vt 0.545282 0.956507
vt 0.549098 0.994924
vt 0.455299 0.956619
vt 0.451577 0.995050
vt 0.367012 0.939321
vt 0.355855 0.976251
vt 0.283933 0.904774
vt 0.265712 0.938927
vt 0.209042 0.854848
vt 0.184502 0.884784
vt 0.145309 0.791288
vt 0.115456 0.815780
vt 0.095345 0.716357
vt 0.061250 0.734555
vt 0.060932 0.633104
vt 0.023932 0.644301
vt 0.099673 0.539228
vt 0.099734 0.460253
vt 0.115073 0.382828
vt 0.145280 0.309912
vt 0.189125 0.244291
vt 0.245231 0.188678
vt 0.310886 0.144737
vt 0.383973 0.114884
vt 0.461327 0.099611
vt 0.540173 0.099822
vt 0.617437 0.115376
vt 0.690204 0.145642
vt 0.755725 0.189493
vt 0.811432 0.245212
vt 0.855292 0.310589
vt 0.885200 0.383460
vt 0.900291 0.460812
vt 0.900346 0.539558
vt 0.884787 0.616770
vt 0.854775 0.689597
vt 0.811016 0.755093
vt 0.755306 0.810805
vt 0.689852 0.854677
vt 0.617019 0.884810
vt 0.539719 0.900364
vt 0.460837 0.900291
vt 0.383448 0.885001
vt 0.310487 0.854960
vt 0.244743 0.811294
vt 0.189105 0.755318
vt 0.145358 0.689609
vt 0.115154 0.616665
vt 0.166937 0.532691
vt 0.166472 0.466843
vt 0.179302 0.402429
vt 0.204617 0.341763
vt 0.241137 0.287149
vt 0.288024 0.241014
vt 0.342748 0.204796
vt 0.403329 0.178967
vt 0.467823 0.166465
vt 0.533471 0.166761
vt 0.597932 0.179299
vt 0.658333 0.205170
vt 0.713032 0.241367
vt 0.759433 0.287780
vt 0.795418 0.342589
vt 0.820218 0.402968
vt 0.833834 0.467305
vt 0.833673 0.532971
vt 0.820538 0.597297
vt 0.795403 0.657888
vt 0.758899 0.712377
vt 0.712515 0.758728
vt 0.657950 0.795089
vt 0.597368 0.820094
vt 0.533080 0.833034
vt 0.467544 0.832944
vt 0.402896 0.820793
vt 0.342225 0.795516
vt 0.287519 0.759126
vt 0.241072 0.712649
vt 0.204838 0.657790
vt 0.179622 0.597153
vt 0.239512 0.525653
vt 0.239635 0.474502
vt 0.248927 0.423750
vt 0.268558 0.376025
vt 0.297615 0.333462
vt 0.334129 0.297415
vt 0.376689 0.268630
vt 0.424087 0.249319
vt 0.474724 0.238449
vt 0.526268 0.238700
vt 0.576745 0.248926
vt 0.624189 0.268876
vt 0.666661 0.297677
vt 0.702996 0.333794
vt 0.731825 0.376396
vt 0.751501 0.423880
vt 0.760472 0.474713
vt 0.761229 0.525912
vt 0.751055 0.576252
vt 0.731212 0.623612
vt 0.702797 0.666368
vt 0.666432 0.702639
vt 0.623730 0.731129
vt 0.576254 0.750565
vt 0.526052 0.760708
vt 0.474615 0.761059
vt 0.424005 0.751298
vt 0.376252 0.731806
vt 0.333462 0.703032
vt 0.297296 0.666290
vt 0.268867 0.623546
vt 0.249206 0.576099
vt 0.320680 0.517651
vt 0.313866 0.481722
vt 0.312095 0.454171
vt 0.315678 0.411952
vt 0.341744 0.373831
vt 0.366613 0.342489
vt 0.411835 0.334963
vt 0.445934 0.320798
vt 0.482041 0.313414
vt 0.519201 0.323061
vt 0.554902 0.320708
vt 0.588785 0.334848
vt 0.628770 0.348528
vt 0.645182 0.381206
vt 0.665573 0.411733
vt 0.679328 0.445845
vt 0.691784 0.480120
vt 0.694736 0.515976
vt 0.679406 0.554430
vt 0.659745 0.584884
vt 0.644869 0.618824
vt 0.623203 0.652432
vt 0.588439 0.665108
vt 0.558144 0.690868
vt 0.520259 0.696072
vt 0.480784 0.695671
vt 0.441264 0.687717
vt 0.411848 0.665220
vt 0.380988 0.645245
vt 0.360131 0.613627
vt 0.334869 0.588352
vt 0.320871 0.554490
vn -0.0022 1.0000 0.0097
vn -0.0042 0.9999 0.0153
vn -0.0100 0.9999 0.0134
vn -0.0063 0.9999 0.0089
vn -0.0137 0.9999 0.0096
vn -0.0075 1.0000 0.0047
vn -0.0147 0.9999 0.0081
vn -0.0048 1.0000 0.0015
vn -0.0157 0.9998 0.0080
vn -0.0068 1.0000 0.0035
vn -0.0171 0.9998 0.0053
vn -0.0082 1.0000 0.0033
vn -0.0206 0.9998 0.0030
vn -0.0109 0.9999 0.0011
vn -0.0240 0.9997 0.0009
vn -0.0155 0.9999 0.0004
vn -0.0251 0.9997 -0.0034
vn -0.0137 0.9999 -0.0022
vn -0.0247 0.9997 -0.0071
vn -0.0122 0.9999 -0.0039
vn -0.0227 0.9997 -0.0089
vn -0.0099 0.9999 -0.0023
vn -0.0171 0.9998 -0.0098
vn -0.0072 1.0000 -0.0032
vn -0.0099 0.9999 -0.0126
vn -0.0020 1.0000 -0.0053
vn -0.0056 0.9999 -0.0128
vn -0.0031 1.0000 -0.0065
vn -0.0049 0.9999 -0.0128
vn -0.0035 0.9999 -0.0101
vn -0.0019 0.9999 -0.0152
vn -0.0007 0.9999 -0.0131
vn 0.0048 0.9999 -0.0155
vn 0.0032 0.9999 -0.0113
vn 0.0093 0.9999 -0.0146
vn 0.0051 1.0000 -0.0078
vn 0.0121 0.9998 -0.0138
vn 0.0046 1.0000 -0.0065
vn 0.0179 0.9998 -0.0117
vn 0.0092 0.9999 -0.0062
vn 0.0203 0.9998 -0.0093
vn 0.0114 0.9999 -0.0054
vn 0.0223 0.9997 -0.0062
vn 0.0108 0.9999 -0.0033
vn 0.0237 0.9997 -0.0030
vn 0.0105 0.9999 -0.0013
vn 0.0243 0.9997 -0.0001
vn 0.0123 0.9999 -0.0002
vn 0.0231 0.9997 0.0031
vn 0.0121 0.9999 0.0016
vn 0.0208 0.9998 0.0081
vn 0.0064 1.0000 0.0047
vn 0.0196 0.9998 0.0100
vn 0.0096 0.9999 0.0046
vn 0.0171 0.9998 0.0106
vn 0.0137 0.9999 0.0089
vn 0.0132 0.9998 0.0134
vn 0.0087 0.9999 0.0088
vn 0.0101 0.9999 0.0134
vn 0.0044 1.0000 0.0046
vn 0.0061 0.9999 0.0144
vn 0.0028 1.0000 0.0050
vn 0.0006 0.9999 0.0156
vn 0.0008 1.0000 0.0080
vn -0.0089 0.9996 0.0254
vn -0.0174 0.9996 0.0213
vn -0.0238 0.9995 0.0185
vn -0.0282 0.9995 0.0170
vn -0.0318 0.9994 0.0154
vn -0.0374 0.9992 0.0118
vn -0.0415 0.9991 0.0056
vn -0.0382 0.9993 0.0009
vn -0.0391 0.9992 -0.0039
vn -0.0377 0.9992 -0.0101
vn -0.0372 0.9992 -0.0143
vn -0.0312 0.9993 -0.0199
vn -0.0205 0.9995 -0.0238
vn -0.0146 0.9995 -0.0264
vn -0.0099 0.9996 -0.0276
vn -0.0011 0.9997 -0.0263
vn 0.0092 0.9997 -0.0234
vn 0.0127 0.9996 -0.0233
vn 0.0203 0.9995 -0.0231
vn 0.0301 0.9994 -0.0197
vn 0.0360 0.9992 -0.0165
vn 0.0418 0.9991 -0.0115
vn 0.0460 0.9989 -0.0064
vn 0.0470 0.9989 0.0002
vn 0.0456 0.9989 0.0063
vn 0.0396 0.9991 0.0136
vn 0.0348 0.9992 0.0172
vn 0.0278 0.9994 0.0190
vn 0.0209 0.9996 0.0210
vn 0.0196 0.9995 0.0240
vn 0.0112 0.9996 0.0278
vn -0.0003 0.9996 0.0281
vn -0.0112 0.9994 0.0313
vn -0.0253 0.9993 0.0277
vn -0.0311 0.9993 0.0227
vn -0.0319 0.9993 0.0199
vn -0.0369 0.9991 0.0221
vn -0.0472 0.9988 0.0160
vn -0.0504 0.9987 0.0035
vn -0.0451 0.9990 -0.0027
vn -0.0381 0.9993 -0.0035
vn -0.0352 0.9993 -0.0083
vn -0.0371 0.9992 -0.0119
vn -0.0349 0.9992 -0.0181
vn -0.0232 0.9993 -0.0286
vn -0.0158 0.9994 -0.0292
vn -0.0106 0.9995 -0.0294
vn 0.0006 0.9995 -0.0301
vn 0.0115 0.9995 -0.0292
vn 0.0156 0.9995 -0.0292
vn 0.0209 0.9994 -0.0264
vn 0.0324 0.9992 -0.0229
vn 0.0396 0.9991 -0.0180
vn 0.0442 0.9989 -0.0130
vn 0.0492 0.9988 -0.0084
vn 0.0524 0.9986 0.0001
vn 0.0493 0.9987 0.0089
vn 0.0379 0.9991 0.0164
vn 0.0289 0.9994 0.0185
vn 0.0267 0.9995 0.0173
vn 0.0269 0.9994 0.0226
vn 0.0248 0.9994 0.0257
vn 0.0120 0.9995 0.0288
vn 0.0002 0.9995 0.0311
vn -0.0052 0.9998 0.0208
vn -0.0209 0.9996 0.0185
vn -0.0305 0.9994 0.0168
vn -0.0269 0.9995 0.0191
vn -0.0249 0.9995 0.0199
vn -0.0262 0.9996 0.0091
vn -0.0319 0.9995 -0.0025
vn -0.0281 0.9996 -0.0064
vn -0.0289 0.9996 -0.0063
vn -0.0286 0.9996 -0.0020
vn -0.0280 0.9996 -0.0075
vn -0.0278 0.9996 -0.0072
vn -0.0143 0.9998 -0.0167
vn -0.0045 0.9998 -0.0213
vn -0.0058 0.9998 -0.0184
vn -0.0083 0.9997 -0.0212
vn 0.0073 0.9997 -0.0253
vn 0.0182 0.9996 -0.0224
vn 0.0152 0.9997 -0.0201
vn 0.0198 0.9997 -0.0158
vn 0.0258 0.9996 -0.0115
vn 0.0275 0.9996 -0.0088
vn 0.0283 0.9996 -0.0073
vn 0.0275 0.9996 0.0002
vn 0.0234 0.9997 0.0098
vn 0.0211 0.9997 0.0139
vn 0.0193 0.9996 0.0186
vn 0.0188 0.9997 0.0151
vn 0.0237 0.9997 0.0112
vn 0.0233 0.9996 0.0149
vn 0.0101 0.9998 0.0196
vn 0.0005 0.9998 0.0203
vn 0.0027 1.0000 -0.0025
vn 0.0062 0.9998 -0.0179
vn -0.0087 1.0000 -0.0002
vn -0.0030 1.0000 -0.0088
vn -0.0105 0.9999 0.0097
vn 0.0381 0.9993 -0.0053
vn -0.0042 1.0000 -0.0019
vn 0.0091 0.9999 -0.0052
vn -0.0311 0.9995 -0.0061
vn -0.0038 1.0000 0.0033
vn 0.0049 1.0000 0.0033
vn -0.0093 1.0000 -0.0003
vn 0.0015 1.0000 0.0048
vn -0.0060 0.9999 -0.0142
vn -0.0236 0.9982 -0.0554
vn -0.0115 0.9998 -0.0145
vn 0.0044 0.9998 -0.0205
vn 0.0132 0.9999 -0.0093
vn 0.0377 0.9988 -0.0297
vn 0.0080 0.9999 -0.0062
vn -0.0194 0.9997 0.0153
vn 0.0131 0.9999 -0.0053
vn 0.0060 1.0000 -0.0016
vn -0.0044 1.0000 0.0037
vn -0.0012 1.0000 0.0082
vn 0.0100 0.9999 0.0084
vn -0.0048 1.0000 -0.0001
vn 0.0102 0.9999 0.0124
vn 0.0381 0.9987 0.0347
vn 0.0106 0.9999 -0.0015
vn 0.0025 1.0000 -0.0063
vn -0.0025 0.9999 -0.0106
usemtl sand
s 1
f 2/1/1 33/2/2 34/3/3 3/4/4
f 3/4/4 34/3/3 35/5/5 4/6/6
f 4/6/6 35/5/5 36/7/7 5/8/8
f 5/8/8 36/7/7 37/9/9 6/10/10
f 6/10/10 37/9/9 38/11/11 7/12/12
f 7/12/12 38/11/11 39/13/13 8/14/14
f 8/14/14 39/13/13 40/15/15 9/16/16
f 9/16/16 40/15/15 41/17/17 10/18/18
f 10/18/18 41/17/17 42/19/19 11/20/20
f 11/20/20 42/19/19 43/21/21 12/22/22
f 12/22/22 43/21/21 44/23/23 13/24/24
f 13/24/24 44/23/23 45/25/25 14/26/26
f 14/26/26 45/25/25 46/27/27 15/28/28
f 15/28/28 46/27/27 47/29/29 16/30/30
f 16/30/30 47/29/29 48/31/31 17/32/32
f 17/32/32 48/31/31 49/33/33 18/34/34
f 18/34/34 49/33/33 50/35/35 19/36/36
f 19/36/36 50/35/35 51/37/37 20/38/38
f 20/38/38 51/37/37 52/39/39 21/40/40
f 21/40/40 52/39/39 53/41/41 22/42/42
f 22/42/42 53/41/41 54/43/43 23/44/44
f 23/44/44 54/43/43 55/45/45 24/46/46
f 24/46/46 55/45/45 56/47/47 25/48/48
f 25/48/48 56/47/47 57/49/49 26/50/50
f 26/50/50 57/49/49 58/51/51 27/52/52
f 27/52/52 58/51/51 59/53/53 28/54/54
f 28/54/54 59/53/53 60/55/55 29/56/56
f 29/56/56 60/55/55 61/57/57 30/58/58
f 30/58/58 61/57/57 62/59/59 31/60/60
f 31/60/60 62/59/59 63/61/61 32/62/62
f 32/62/62 63/61/61 64/63/63 1/64/64
f 1/64/64 64/63/63 33/2/2 2/1/1
f 33/2/2 65/65/65 66/66/66 34/3/3
f 34/3/3 66/66/66 67/67/67 35/5/5
f 35/5/5 67/67/67 68/68/68 36/7/7
f 36/7/7 68/68/68 69/69/69 37/9/9
f 37/9/9 69/69/69 70/70/70 38/11/11
f 38/11/11 70/70/70 71/71/71 39/13/13
f 39/13/13 71/71/71 72/72/72 40/15/15
f 40/15/15 72/72/72 73/73/73 41/17/17
f 41/17/17 73/73/73 74/74/74 42/19/19
f 42/19/19 74/74/74 75/75/75 43/21/21
f 43/21/21 75/75/75 76/76/76 44/23/23
f 44/23/23 76/76/76 77/77/77 45/25/25
f 45/25/25 77/77/77 78/78/78 46/27/27
f 46/27/27 78/78/78 79/79/79 47/29/29
f 47/29/29 79/79/79 80/80/80 48/31/31
f 48/31/31 80/80/80 81/81/81 49/33/33
f 49/33/33 81/81/81 82/82/82 50/35/35
f 50/35/35 82/82/82 83/83/83 51/37/37
f 51/37/37 83/83/83 84/84/84 52/39/39
f 52/39/39 84/84/84 85/85/85 53/41/41
f 53/41/41 85/85/85 86/86/86 54/43/43
f 54/43/43 86/86/86 87/87/87 55/45/45
f 55/45/45 87/87/87 88/88/88 56/47/47
f 56/47/47 88/88/88 89/89/89 57/49/49
f 57/49/49 89/89/89 90/90/90 58/51/51
f 58/51/51 90/90/90 91/91/91 59/53/53
f 59/53/53 91/91/91 92/92/92 60/55/55
f 60/55/55 92/92/92 93/93/93 61/57/57
f 61/57/57 93/93/93 94/94/94 62/59/59
f 62/59/59 94/94/94 95/95/95 63/61/61
f 63/61/61 95/95/95 96/96/96 64/63/63
f 64/63/63 96/96/96 65/65/65 33/2/2
f 65/65/65 97/97/97 98/98/98 66/66/66
f 66/66/66 98/98/98 99/99/99 67/67/67
f 67/67/67 99/99/99 100/100/100 68/68/68
f 68/68/68 100/100/100 101/101/101 69/69/69
f 69/69/69 101/101/101 102/102/102 70/70/70
f 70/70/70 102/102/102 103/103/103 71/71/71
f 71/71/71 103/103/103 104/104/104 72/72/72
f 72/72/72 104/104/104 105/105/105 73/73/73
f 73/73/73 105/105/105 106/106/106 74/74/74
f 74/74/74 106/106/106 107/107/107 75/75/75
f 75/75/75 107/107/107 108/108/108 76/76/76
f 76/76/76 108/108/108 109/109/109 77/77/77
f 77/77/77 109/109/109 110/110/110 78/78/78
f 78/78/78 110/110/110 111/111/111 79/79/79
f 79/79/79 111/111/111 112/112/112 80/80/80
f 80/80/80 112/112/112 113/113/113 81/81/81
f 81/81/81 113/113/113 114/114/114 82/82/82
f 82/82/82 114/114/114 115/115/115 83/83/83
f 83/83/83 115/115/115 116/116/116 84/84/84
f 84/84/84 116/116/116 117/117/117 85/85/85
f 85/85/85 117/117/117 118/118/118 86/86/86
f 86/86/86 118/118/118 119/119/119 87/87/87
f 87/87/87 119/119/119 120/120/120 88/88/88
f 88/88/88 120/120/120 121/121/121 89/89/89
f 89/89/89 121/121/121 122/122/122 90/90/90
f 90/90/90 122/122/122 123/123/123 91/91/91
f 91/91/91 123/123/123 124/124/124 92/92/92
f 92/92/92 124/124/124 125/125/125 93/93/93
f 93/93/93 125/125/125 126/126/126 94/94/94
f 94/94/94 126/126/126 127/127/127 95/95/95
f 95/95/95 127/127/127 128/128/128 96/96/96
f 96/96/96 128/128/128 97/97/97 65/65/65
f 97/97/97 129/129/129 130/130/130 98/98/98
f 98/98/98 130/130/130 131/131/131 99/99/99
f 99/99/99 131/131/131 132/132/132 100/100/100
f 100/100/100 132/132/132 133/133/133 101/101/101
f 101/101/101 133/133/133 134/134/134 102/102/102
f 102/102/102 134/134/134 135/135/135 103/103/103
f 103/103/103 135/135/135 136/136/136 104/104/104
f 104/104/104 136/136/136 137/137/137 105/105/105
f 105/105/105 137/137/137 138/138/138 106/106/106
f 106/106/106 138/138/138 139/139/139 107/107/107
f 107/107/107 139/139/139 140/140/140 108/108/108
f 108/108/108 140/140/140 141/141/141 109/109/109
f 109/109/109 141/141/141 142/142/142 110/110/110
f 110/110/110 142/142/142 143/143/143 111/111/111
f 111/111/111 143/143/143 144/144/144 112/112/112
f 112/112/112 144/144/144 145/145/145 113/113/113
f 113/113/113 145/145/145 146/146/146 114/114/114
f 114/114/114 146/146/146 147/147/147 115/115/115
f 115/115/115 147/147/147 148/148/148 116/116/116
f 116/116/116 148/148/148 149/149/149 117/117/117
f 117/117/117 149/149/149 150/150/150 118/118/118
f 118/118/118 150/150/150 151/151/151 119/119/119
f 119/119/119 151/151/151 152/152/152 120/120/120
f 120/120/120 152/152/152 153/153/153 121/121/121
f 121/121/121 153/153/153 154/154/154 122/122/122
f 122/122/122 154/154/154 155/155/155 123/123/123
f 123/123/123 155/155/155 156/156/156 124/124/124
f 124/124/124 156/156/156 157/157/157 125/125/125
f 125/125/125 157/157/157 158/158/158 126/126/126
f 126/126/126 158/158/158 159/159/159 127/127/127
f 127/127/127 159/159/159 160/160/160 128/128/128
f 128/128/128 160/160/160 129/129/129 97/97/97
f 129/129/129 161/161/161 162/162/162 130/130/130
f 130/130/130 162/162/162 163/163/163 131/131/131
f 131/131/131 163/163/163 164/164/164 132/132/132
f 132/132/132 164/164/164 165/165/165 133/133/133
f 133/133/133 165/165/165 166/166/166 134/134/134
f 134/134/134 166/166/166 167/167/167 135/135/135
f 135/135/135 167/167/167 168/168/168 136/136/136
f 136/136/136 168/168/168 169/169/169 137/137/137
f 137/137/137 169/169/169 170/170/170 138/138/138
f 138/138/138 170/170/170 171/171/171 139/139/139
f 139/139/139 171/171/171 172/172/172 140/140/140
f 140/140/140 172/172/172 173/173/173 141/141/141
f 141/141/141 173/173/173 174/174/174 142/142/142
f 142/142/142 174/174/174 175/175/175 143/143/143
f 143/143/143 175/175/175 176/176/176 144/144/144
f 144/144/144 176/176/176 177/177/177 145/145/145
f 145/145/145 177/177/177 178/178/178 146/146/146
f 146/146/146 178/178/178 179/179/179 147/147/147
f 147/147/147 179/179/179 180/180/180 148/148/148
f 148/148/148 180/180/180 181/181/181 149/149/149
f 149/149/149 181/181/181 182/182/182 150/150/150
f 150/150/150 182/182/182 183/183/183 151/151/151
f 151/151/151 183/183/183 184/184/184 152/152/152
f 152/152/152 184/184/184 185/185/185 153/153/153
f 153/153/153 185/185/185 186/186/186 154/154/154
f 154/154/154 186/186/186 187/187/187 155/155/155
f 155/155/155 187/187/187 188/188/188 156/156/156
f 156/156/156 188/188/188 189/189/189 157/157/157
f 157/157/157 189/189/189 190/190/190 158/158/158
f 158/158/158 190/190/190 191/191/191 159/159/159
f 159/159/159 191/191/191 192/192/192 160/160/160
f 160/160/160 192/192/192 161/161/161 129/129/129
usemtl grass
f 161/161/161 188/188/188 183/183/183
f 161/161/161 163/163/163 162/162/162
f 163/163/163 165/165/165 164/164/164
f 165/165/165 167/167/167 166/166/166
f 167/167/167 169/169/169 168/168/168
f 170/170/170 172/172/172 171/171/171
f 167/167/167 170/170/170 169/169/169
f 163/163/163 167/167/167 165/165/165
f 191/191/191 161/161/161 192/192/192
f 161/161/161 167/167/167 163/163/163
f 167/167/167 172/172/172 170/170/170
f 172/172/172 174/174/174 173/173/173
f 174/174/174 176/176/176 175/175/175
f 176/176/176 178/178/178 177/177/177
f 178/178/178 180/180/180 179/179/179
f 180/180/180 182/182/182 181/181/181
f 183/183/183 185/185/185 184/184/184
f 180/180/180 183/183/183 182/182/182
f 176/176/176 180/180/180 178/178/178
f 172/172/172 176/176/176 174/174/174
f 161/161/161 172/172/172 167/167/167
f 190/190/190 161/161/161 191/191/191
f 188/188/188 190/190/190 189/189/189
f 186/186/186 188/188/188 187/187/187
f 183/183/183 186/186/186 185/185/185
f 176/176/176 183/183/183 180/180/180
f 161/161/161 176/176/176 172/172/172
f 188/188/188 161/161/161 190/190/190
f 183/183/183 188/188/188 186/186/186
f 161/161/161 183/183/183 176/176/176
