# Blender v2.93.1 OBJ File: ''
# www.blender.org
mtllib sky.mtl
o wall_1_Cube.002
v -6.867470 -0.093939 6.925525
v -6.867470 -0.093937 -6.925525
v -6.867470 8.316333 -6.925524
v -6.867470 8.316331 6.925527
v -7.024137 -0.093937 -6.925525
v -7.024137 8.316333 -6.925524
v -7.024137 -0.093939 6.925525
v -7.024137 8.316331 6.925527
vn 1.0000 0.0000 0.0000
vn 0.0000 0.0000 -1.0000
vn -1.0000 0.0000 0.0000
vn 0.0000 -0.0000 1.0000
vn 0.0000 -1.0000 -0.0000
vn 0.0000 1.0000 0.0000
usemtl Material.003
s 1
f 1//1 2//1 3//1 4//1
f 2//2 5//2 6//2 3//2
f 5//3 7//3 8//3 6//3
f 7//4 1//4 4//4 8//4
f 2//5 1//5 7//5 5//5
f 6//6 8//6 4//6 3//6
o wall_2_Cube.003
v 7.028124 -0.093939 6.925525
v 7.028124 -0.093937 -6.925525
v 7.028124 8.316333 -6.925524
v 7.028124 8.316331 6.925527
v 6.871456 -0.093937 -6.925525
v 6.871456 8.316333 -6.925524
v 6.871456 -0.093939 6.925525
v 6.871456 8.316331 6.925527
vn 1.0000 0.0000 0.0000
vn 0.0000 0.0000 -1.0000
vn -1.0000 0.0000 0.0000
vn 0.0000 -0.0000 1.0000
vn 0.0000 -1.0000 -0.0000
vn 0.0000 1.0000 0.0000
usemtl Material.004
s 1
f 9//7 10//7 11//7 12//7
f 10//8 13//8 14//8 11//8
f 13//9 15//9 16//9 14//9
f 15//10 9//10 12//10 16//10
f 10//11 9//11 15//11 13//11
f 14//12 16//12 12//12 11//12
o wall_3_Cube.004
v 6.947309 -0.093937 -6.920940
v -6.903741 -0.093937 -6.920940
v -6.903741 8.316333 -6.920938
v 6.947309 8.316333 -6.920938
v -6.903741 -0.093937 -6.764273
v -6.903741 8.316333 -6.764272
v 6.947309 -0.093937 -6.764273
v 6.947309 8.316333 -6.764272
vn 0.0000 0.0000 -1.0000
vn -1.0000 0.0000 0.0000
vn 0.0000 -0.0000 1.0000
vn 1.0000 0.0000 0.0000
vn 0.0000 -1.0000 -0.0000
vn 0.0000 1.0000 0.0000
usemtl Material.002
s 1
f 17//13 18//13 19//13 20//13
f 18//14 21//14 22//14 19//14
f 21//15 23//15 24//15 22//15
f 23//16 17//16 20//16 24//16
f 18//17 17//17 23//17 21//17
f 22//18 24//18 20//18 19//18
o wall_4_Cube.005
v 6.947309 -0.093939 6.758470
v -6.903741 -0.093939 6.758471
v -6.903741 8.316331 6.758472
v 6.947309 8.316331 6.758471
v -6.903741 -0.093939 6.915138
v -6.903741 8.316331 6.915139
v 6.947309 -0.093939 6.915137
v 6.947309 8.316331 6.915138
vn -0.0000 0.0000 -1.0000
vn -1.0000 0.0000 0.0000
vn 0.0000 -0.0000 1.0000
vn 1.0000 0.0000 0.0000
vn -0.0000 -1.0000 -0.0000
vn 0.0000 1.0000 0.0000
usemtl Material.005
s 1
f 25//19 26//19 27//19 28//19
f 26//20 29//20 30//20 27//20
f 29//21 31//21 32//21 30//21
f 31//22 25//22 28//22 32//22
f 26//23 25//23 31//23 29//23
f 30//24 32//24 28//24 27//24
o Room.001_Cube.006
v -6.873528 8.121713 6.925527
v -6.873528 8.315152 6.925527
v -6.873528 8.315154 -6.925524
v -6.873528 8.121715 -6.925524
v 6.873528 8.315154 -6.925524
v 6.873528 8.121715 -6.925524
v 6.873528 8.315152 6.925527
v 6.873528 8.121713 6.925527
vn -1.0000 0.0000 0.0000
vn 0.0000 0.0000 -1.0000
vn 1.0000 0.0000 0.0000
vn 0.0000 0.0000 1.0000
vn 0.0000 -1.0000 -0.0000
vn 0.0000 1.0000 0.0000
usemtl None
s 1
f 33//25 34//25 35//25 36//25
f 36//26 35//26 37//26 38//26
f 38//27 37//27 39//27 40//27
f 40//28 39//28 34//28 33//28
f 36//29 38//29 40//29 33//29
f 37//30 35//30 34//30 39//30
